<?xml version="1.0" encoding="UTF-8"?>
<svg width="700" height="900" viewBox="0 0 700 900" xmlns="http://www.w3.org/2000/svg">
  <rect x="0" y="0" width="700" height="900" rx="88" fill="#000000" />
  <clipPath id="screenClip">
    <rect x="24" y="24" width="652" height="852" rx="72" />
  </clipPath>
  <g clip-path="url(#screenClip)">
    <polygon points="350.00,450.00 399.73,-689.09 474.13,-683.40 547.99,-672.85 621.00,-657.50 692.86,-637.40 763.24,-612.65 831.86,-583.35 898.41,-549.62 962.62,-511.61 1024.20,-469.49 1082.89,-423.43 1138.45,-373.62 1190.63,-320.29 1239.21,-263.66 1283.98,-203.98 1324.75,-141.49 1337.42,-120.09" fill="#efe8d3" />
<polygon points="350.00,450.00 1337.42,-120.09 1372.59,-54.29 1403.38,13.67 1429.67,83.50 1451.32,154.90 1468.27,227.56 1480.42,301.18 1487.73,375.43 1490.18,450.00 1487.73,524.57 1480.42,598.82 1468.27,672.44 1451.32,745.10 1429.67,816.50 1403.38,886.33 1372.59,954.29 1337.42,1020.09 1298.02,1083.45 1254.56,1144.09 1207.23,1201.77 1156.23,1256.23 1101.77,1307.23 1044.09,1354.56 983.45,1398.02 920.09,1437.42 854.29,1472.59 786.33,1503.38 716.50,1529.67 645.10,1551.32 572.44,1568.27 498.82,1580.42 424.57,1587.73 350.00,1590.18 275.43,1587.73 201.18,1580.42 127.56,1568.27 54.90,1551.32 -16.50,1529.67 -86.33,1503.38 -154.29,1472.59 -220.09,1437.42 -283.45,1398.02 -344.09,1354.56 -401.77,1307.23 -456.23,1256.23 -507.23,1201.77 -554.56,1144.09 -598.02,1083.45 -637.42,1020.09 -672.59,954.29 -703.38,886.33 -729.67,816.50 -751.32,745.10 -768.27,672.44 -780.42,598.82 -787.73,524.57 -790.18,450.00 -787.73,375.43 -780.42,301.18 -768.27,227.56 -751.32,154.90 -729.67,83.50 -703.38,13.67 -672.59,-54.29 -637.42,-120.09 -598.02,-183.45 -583.98,-203.98" fill="#c45d32" />
<polygon points="350.00,450.00 -583.98,-203.98 -539.21,-263.66 -490.63,-320.29 -438.45,-373.62 -382.89,-423.43 -324.20,-469.49 -262.62,-511.61 -198.41,-549.62 -131.86,-583.35 -63.24,-612.65 7.14,-637.40 79.00,-657.50 152.01,-672.85 225.87,-683.40 300.27,-689.09 374.87,-689.90 399.73,-689.09" fill="#9a8a78" />
    
    <line x1="157.50" y1="315.21" x2="75.58" y2="257.85" stroke="#f6f6f4" stroke-width="12" stroke-linecap="round" />
<line x1="157.50" y1="315.21" x2="75.58" y2="257.85" stroke="#9a8a78" stroke-width="5" stroke-linecap="round" />
<line x1="553.52" y1="332.50" x2="640.12" y2="282.50" stroke="#f6f6f4" stroke-width="12" stroke-linecap="round" />
<line x1="553.52" y1="332.50" x2="640.12" y2="282.50" stroke="#c45d32" stroke-width="5" stroke-linecap="round" />
    <g>
        <rect x="152" y="382" width="96" height="140" rx="12" fill="#f6f6f4" />
        <rect x="258" y="382" width="96" height="140" rx="12" fill="#f6f6f4" />
        <rect x="364" y="382" width="96" height="140" rx="12" fill="#f6f6f4" />
        <rect x="470" y="382" width="96" height="140" rx="12" fill="#f6f6f4" />
        <text x="200" y="485" text-anchor="middle" font-family="Arial Black, Arial, sans-serif" font-size="108" fill="#9a8a78">1</text>
        <text x="306" y="485" text-anchor="middle" font-family="Arial Black, Arial, sans-serif" font-size="108" fill="#9a8a78">0</text>
        <text x="412" y="485" text-anchor="middle" font-family="Arial Black, Arial, sans-serif" font-size="108" fill="#c45d32">1</text>
        <text x="518" y="485" text-anchor="middle" font-family="Arial Black, Arial, sans-serif" font-size="108" fill="#c45d32">0</text>
      </g>
    <rect x="294" y="690" width="52" height="52" rx="6" fill="#f6f6f4" />
<text x="320" y="732" text-anchor="middle" font-family="Arial Black, Arial, sans-serif" font-size="44" fill="#c45d32">0</text>
<rect x="354" y="690" width="52" height="52" rx="6" fill="#f6f6f4" />
<text x="380" y="732" text-anchor="middle" font-family="Arial Black, Arial, sans-serif" font-size="44" fill="#c45d32">8</text>
<rect x="264" y="752" width="52" height="52" rx="6" fill="#f6f6f4" />
<text x="290" y="794" text-anchor="middle" font-family="Arial Black, Arial, sans-serif" font-size="44" fill="#c45d32">M</text>
<rect x="324" y="752" width="52" height="52" rx="6" fill="#f6f6f4" />
<text x="350" y="794" text-anchor="middle" font-family="Arial Black, Arial, sans-serif" font-size="44" fill="#c45d32">O</text>
<rect x="384" y="752" width="52" height="52" rx="6" fill="#f6f6f4" />
<text x="410" y="794" text-anchor="middle" font-family="Arial Black, Arial, sans-serif" font-size="44" fill="#c45d32">N</text>
  </g>
</svg>