<?xml version="1.0" encoding="UTF-8"?>
<svg width="700" height="900" viewBox="0 0 700 900" xmlns="http://www.w3.org/2000/svg">
  <rect x="0" y="0" width="700" height="900" rx="88" fill="#000000" />
  <clipPath id="screenClip">
    <rect x="24" y="24" width="652" height="852" rx="72" />
  </clipPath>
  <g clip-path="url(#screenClip)">
    <polygon points="350.00,450.00 350.00,-690.18 424.57,-687.73 498.82,-680.42 508.68,-679.08" fill="#9a8a78" />
<polygon points="350.00,450.00 508.68,-679.08 582.19,-666.28 654.70,-648.71 725.91,-626.43 795.50,-599.54 863.19,-568.15 928.68,-532.41 991.70,-492.46 1051.96,-448.47 1109.22,-400.64 1163.23,-349.16 1213.76,-294.26 1260.58,-236.17 1303.51,-175.15 1342.36,-111.45 1376.95,-45.34 1407.15,22.88 1432.82,92.94 1453.86,164.52 1470.17,237.33 1481.68,311.05 1488.34,385.36 1490.13,459.95 1487.04,534.50 1479.08,608.68 1466.28,682.19 1448.71,754.70 1426.43,825.91 1399.54,895.50 1368.15,963.19 1332.41,1028.68 1292.46,1091.70 1248.47,1151.96 1200.64,1209.22 1149.16,1263.23 1094.26,1313.76 1036.17,1360.58 975.15,1403.51 911.45,1442.36 845.34,1476.95 777.12,1507.15 707.06,1532.82 635.48,1553.86 562.67,1570.17 488.95,1581.68 414.64,1588.34 340.05,1590.13 270.47,1587.40" fill="#c45d32" />
<polygon points="350.00,450.00 270.47,1587.40 196.25,1579.76 122.69,1567.29 50.10,1550.03 -21.20,1528.06 -90.92,1501.47 -158.74,1470.38 -224.39,1434.92 -287.58,1395.25 -348.04,1351.52 -405.50,1303.94 -459.74,1252.70 -510.50,1198.02 -557.58,1140.14 -600.78,1079.30 -639.90,1015.77 -674.78,949.82 -705.28,881.73 -731.26,811.78 -752.60,740.29 -769.23,667.56 -781.06,593.89 -788.05,519.61 -790.16,445.03 -787.40,370.47 -779.76,296.25 -767.29,222.69 -750.03,150.10 -728.06,78.80 -701.47,9.08 -670.38,-58.74 -634.92,-124.39 -595.25,-187.58 -551.52,-248.04 -503.94,-305.50 -452.70,-359.74 -398.02,-410.50 -340.14,-457.58 -279.30,-500.78 -215.77,-539.90 -149.82,-574.78 -81.73,-605.28 -11.78,-631.26 59.71,-652.60 132.44,-669.23 206.11,-681.06 280.39,-688.05 350.00,-690.18" fill="#efe8d3" />
    <line x1="350" y1="450" x2="350" y2="260" stroke="#f6f6f4" stroke-width="24" stroke-linecap="round" />
<line x1="350" y1="450" x2="350" y2="260" stroke="#6f5732" stroke-width="14" stroke-linecap="round" />
<line x1="350" y1="450" x2="388.96846826881836" y2="172.72494075236034" stroke="#f6f6f4" stroke-width="22" stroke-linecap="round" />
<line x1="350" y1="450" x2="388.96846826881836" y2="172.72494075236034" stroke="#6f5732" stroke-width="12" stroke-linecap="round" />
<circle cx="350" cy="450" r="24" fill="#f6f6f4" />
<circle cx="350" cy="450" r="14" fill="#6f5732" />
    
    
    <rect x="294" y="690" width="52" height="52" rx="6" fill="#f6f6f4" />
<text x="320" y="732" text-anchor="middle" font-family="Arial Black, Arial, sans-serif" font-size="44" fill="#c45d32">0</text>
<rect x="354" y="690" width="52" height="52" rx="6" fill="#f6f6f4" />
<text x="380" y="732" text-anchor="middle" font-family="Arial Black, Arial, sans-serif" font-size="44" fill="#c45d32">8</text>
<rect x="264" y="752" width="52" height="52" rx="6" fill="#f6f6f4" />
<text x="290" y="794" text-anchor="middle" font-family="Arial Black, Arial, sans-serif" font-size="44" fill="#c45d32">M</text>
<rect x="324" y="752" width="52" height="52" rx="6" fill="#f6f6f4" />
<text x="350" y="794" text-anchor="middle" font-family="Arial Black, Arial, sans-serif" font-size="44" fill="#c45d32">O</text>
<rect x="384" y="752" width="52" height="52" rx="6" fill="#f6f6f4" />
<text x="410" y="794" text-anchor="middle" font-family="Arial Black, Arial, sans-serif" font-size="44" fill="#c45d32">N</text>
  </g>
</svg>