<?xml version="1.0" encoding="UTF-8"?>
<svg width="200" height="228" viewBox="0 0 200 228" xmlns="http://www.w3.org/2000/svg">
  <rect x="0" y="0" width="200" height="228" rx="20" fill="#000000" />
  <clipPath id="screenClip">
    <rect x="6" y="6" width="188" height="216" rx="16" />
  </clipPath>
  <g clip-path="url(#screenClip)">
    <polygon points="100.00,114.00 113.23,-189.00 133.02,-187.49 152.67,-184.68 172.09,-180.60 191.20,-175.25 209.92,-168.67 228.18,-160.87 245.88,-151.90 262.96,-141.79 279.34,-130.59 294.95,-118.33 309.73,-105.08 323.61,-90.90 336.53,-75.84 348.44,-59.96 359.29,-43.34 362.66,-37.64" fill="#efe8d3" />
<polygon points="100.00,114.00 362.66,-37.64 372.01,-20.14 380.20,-2.06 387.19,16.51 392.95,35.50 397.46,54.83 400.69,74.41 402.64,94.16 403.29,114.00 402.64,133.84 400.69,153.59 397.46,173.17 392.95,192.50 387.19,211.49 380.20,230.06 372.01,248.14 362.66,265.64 352.18,282.50 340.62,298.63 328.02,313.97 314.46,328.46 299.97,342.02 284.63,354.62 268.50,366.18 251.64,376.66 234.14,386.01 216.06,394.20 197.49,401.19 178.50,406.95 159.17,411.46 139.59,414.69 119.84,416.64 100.00,417.29 80.16,416.64 60.41,414.69 40.83,411.46 21.50,406.95 2.51,401.19 -16.06,394.20 -34.14,386.01 -51.64,376.66 -68.50,366.18 -84.63,354.62 -99.97,342.02 -114.46,328.46 -128.02,313.97 -140.62,298.63 -152.18,282.50 -162.66,265.64 -172.01,248.14 -180.20,230.06 -187.19,211.49 -192.95,192.50 -197.46,173.17 -200.69,153.59 -202.64,133.84 -203.29,114.00 -202.64,94.16 -200.69,74.41 -197.46,54.83 -192.95,35.50 -187.19,16.51 -180.20,-2.06 -172.01,-20.14 -162.66,-37.64 -152.18,-54.50 -148.44,-59.96" fill="#c45d32" />
<polygon points="100.00,114.00 -148.44,-59.96 -136.53,-75.84 -123.61,-90.90 -109.73,-105.08 -94.95,-118.33 -79.34,-130.59 -62.96,-141.79 -45.88,-151.90 -28.18,-160.87 -9.92,-168.67 8.80,-175.25 27.91,-180.60 47.33,-184.68 66.98,-187.49 86.77,-189.00 106.62,-189.22 113.23,-189.00" fill="#9a8a78" />
    <line x1="100.00" y1="114.00" x2="65.60" y2="89.91" stroke="#f6f6f4" stroke-width="7" stroke-linecap="round" />
<line x1="100.00" y1="114.00" x2="65.60" y2="89.91" stroke="#6f5732" stroke-width="4" stroke-linecap="round" />
<line x1="100.00" y1="114.00" x2="155.43" y2="82.00" stroke="#f6f6f4" stroke-width="6" stroke-linecap="round" />
<line x1="100.00" y1="114.00" x2="155.43" y2="82.00" stroke="#6f5732" stroke-width="3" stroke-linecap="round" />
<circle cx="100" cy="114" r="7" fill="#f6f6f4" />
<circle cx="100" cy="114" r="4" fill="#6f5732" />
    
    
    <rect x="83" y="170" width="16" height="16" rx="2" fill="#f6f6f4" />
<text x="91" y="181" text-anchor="middle" font-family="Gothic-Bold, Arial Black, sans-serif" font-size="10" fill="#c45d32">0</text>
<rect x="101" y="170" width="16" height="16" rx="2" fill="#f6f6f4" />
<text x="109" y="181" text-anchor="middle" font-family="Gothic-Bold, Arial Black, sans-serif" font-size="10" fill="#c45d32">8</text>
<rect x="74" y="189" width="16" height="16" rx="2" fill="#f6f6f4" />
<text x="82" y="200" text-anchor="middle" font-family="Gothic-Bold, Arial Black, sans-serif" font-size="8" fill="#c45d32">M</text>
<rect x="92" y="189" width="16" height="16" rx="2" fill="#f6f6f4" />
<text x="100" y="200" text-anchor="middle" font-family="Gothic-Bold, Arial Black, sans-serif" font-size="8" fill="#c45d32">O</text>
<rect x="110" y="189" width="16" height="16" rx="2" fill="#f6f6f4" />
<text x="118" y="200" text-anchor="middle" font-family="Gothic-Bold, Arial Black, sans-serif" font-size="8" fill="#c45d32">N</text>
  </g>
</svg>