<?xml version="1.0" encoding="UTF-8"?>
<svg width="200" height="228" viewBox="0 0 200 228" xmlns="http://www.w3.org/2000/svg">
  <rect x="0" y="0" width="200" height="228" rx="20" fill="#000000" />
  <clipPath id="screenClip">
    <rect x="6" y="6" width="188" height="216" rx="16" />
  </clipPath>
  <g clip-path="url(#screenClip)">
    <polygon points="100.00,114.00 100.00,-189.29 119.84,-188.64 139.59,-186.69 142.21,-186.34" fill="#9a8a78" />
<polygon points="100.00,114.00 142.21,-186.34 161.76,-182.93 181.05,-178.26 199.99,-172.33 218.50,-165.18 236.51,-156.83 253.93,-147.32 270.69,-136.70 286.72,-124.99 301.95,-112.27 316.32,-98.58 329.76,-83.97 342.22,-68.52 353.64,-52.29 363.97,-35.35 373.17,-17.76 381.20,0.39 388.03,19.02 393.63,38.06 397.97,57.43 401.03,77.04 402.80,96.81 403.28,116.65 402.45,136.48 400.34,156.21 396.93,175.76 392.26,195.05 386.33,213.99 379.18,232.50 370.83,250.51 361.32,267.93 350.70,284.69 338.99,300.72 326.27,315.95 312.58,330.32 297.97,343.76 282.52,356.22 266.29,367.64 249.35,377.97 231.76,387.17 213.61,395.20 194.98,402.03 175.94,407.63 156.57,411.97 136.96,415.03 117.19,416.80 97.35,417.28 78.84,416.55" fill="#c45d32" />
<polygon points="100.00,114.00 78.84,416.55 59.10,414.52 39.53,411.20 20.23,406.61 1.26,400.77 -17.29,393.69 -35.33,385.42 -52.79,375.99 -69.60,365.44 -85.68,353.81 -100.97,341.15 -115.39,327.52 -128.89,312.98 -141.42,297.58 -152.91,281.40 -163.31,264.50 -172.59,246.95 -180.71,228.84 -187.62,210.23 -193.29,191.22 -197.72,171.87 -200.86,152.27 -202.72,132.52 -203.29,112.68 -202.55,92.84 -200.52,73.10 -197.20,53.53 -192.61,34.23 -186.77,15.26 -179.69,-3.29 -171.42,-21.33 -161.99,-38.79 -151.44,-55.60 -139.81,-71.68 -127.15,-86.97 -113.52,-101.39 -98.98,-114.89 -83.58,-127.42 -67.40,-138.91 -50.50,-149.31 -32.95,-158.59 -14.84,-166.71 3.77,-173.62 22.78,-179.29 42.13,-183.72 61.73,-186.86 81.48,-188.72 100.00,-189.29" fill="#efe8d3" />
    <line x1="100.00" y1="114.00" x2="100.00" y2="72.00" stroke="#f6f6f4" stroke-width="7" stroke-linecap="round" />
<line x1="100.00" y1="114.00" x2="100.00" y2="72.00" stroke="#6f5732" stroke-width="4" stroke-linecap="round" />
<line x1="100.00" y1="114.00" x2="108.91" y2="50.62" stroke="#f6f6f4" stroke-width="6" stroke-linecap="round" />
<line x1="100.00" y1="114.00" x2="108.91" y2="50.62" stroke="#6f5732" stroke-width="3" stroke-linecap="round" />
<circle cx="100" cy="114" r="7" fill="#f6f6f4" />
<circle cx="100" cy="114" r="4" fill="#6f5732" />
    
    
    <rect x="83" y="170" width="16" height="16" rx="2" fill="#f6f6f4" />
<text x="91" y="181" text-anchor="middle" font-family="Gothic-Bold, Arial Black, sans-serif" font-size="10" fill="#c45d32">0</text>
<rect x="101" y="170" width="16" height="16" rx="2" fill="#f6f6f4" />
<text x="109" y="181" text-anchor="middle" font-family="Gothic-Bold, Arial Black, sans-serif" font-size="10" fill="#c45d32">8</text>
<rect x="74" y="189" width="16" height="16" rx="2" fill="#f6f6f4" />
<text x="82" y="200" text-anchor="middle" font-family="Gothic-Bold, Arial Black, sans-serif" font-size="8" fill="#c45d32">M</text>
<rect x="92" y="189" width="16" height="16" rx="2" fill="#f6f6f4" />
<text x="100" y="200" text-anchor="middle" font-family="Gothic-Bold, Arial Black, sans-serif" font-size="8" fill="#c45d32">O</text>
<rect x="110" y="189" width="16" height="16" rx="2" fill="#f6f6f4" />
<text x="118" y="200" text-anchor="middle" font-family="Gothic-Bold, Arial Black, sans-serif" font-size="8" fill="#c45d32">N</text>
  </g>
</svg>